<svg version="1.1" xmlns="http://www.w3.org/2000/svg" xmlns:xlink="http://www.w3.org/1999/xlink" width="60.01798" height="45.32257" viewBox="0,0,60.01798,45.32257"><g transform="translate(-213.81812,-186.19647)"><g data-paper-data="{&quot;isPaintingLayer&quot;:true}" fill-rule="nonzero" stroke-linecap="butt" stroke-linejoin="miter" stroke-miterlimit="10" stroke-dasharray="" stroke-dashoffset="0" style="mix-blend-mode: normal"><path d="M215.99486,212.71888c0,-1.38071 1.11929,-2.5 2.5,-2.5c1.38071,0 2.5,1.11929 2.5,2.5c0,1.38071 -1.11929,2.5 -2.5,2.5c-1.38071,0 -2.5,-1.11929 -2.5,-2.5z" fill="#000000" stroke="none" stroke-width="0.5"/><path d="M253.335,208.32592c0,-1.38071 1.11929,-2.5 2.5,-2.5c1.38071,0 2.5,1.11929 2.5,2.5c0,1.38071 -1.11929,2.5 -2.5,2.5c-1.38071,0 -2.5,-1.11929 -2.5,-2.5z" fill="#000000" stroke="none" stroke-width="0.5"/><path d="M261.26364,214.91536c0,2.5 -2.5,2.5 -2.5,2.5l0.18194,-0.61856c-3.50116,3.05537 -7.00665,4.89931 -10.97966,7.21979c-1.17857,0.68836 -2.20308,1.73796 -3.52235,2.0878c-0.46929,0.12445 -7.91478,0.09688 -8.74296,0.09688c-0.7306,0 -6.93351,0.0597 -7.54615,-0.1903c-1.99951,-0.81594 -4.48699,-4.94862 -5.48433,-6.36724c0,0 -1.43366,-2.04808 0.61442,-3.48174c2.04808,-1.43366 3.48174,0.61442 3.48174,0.61442c1.08123,1.55201 1.50513,4.0231 3.30159,4.61515c1.78425,0.58803 3.75408,-0.1903 5.63273,-0.1903c2.45506,0 4.98861,0.71514 7.36455,0.09688c0.9082,-0.23633 1.537,-1.07903 2.33492,-1.573c3.66962,-2.27173 6.97371,-3.81357 10.25298,-6.69124l3.11058,-0.61856c0,0 2.5,0 2.5,2.5z" fill="#000000" stroke="none" stroke-width="0.5"/><path d="M215.12909,230.51905v-43.19743h57.70701v43.19743z" fill="#9966ff" stroke="#000000" stroke-width="2"/><path d="M214.81812,230.39391v-43.19743h57.70701v43.19743z" data-paper-data="{&quot;index&quot;:null}" fill="#9966ff" stroke="#000000" stroke-width="2"/><path d="M264.67476,214.72767c-1.38071,0 -2.5,-1.11929 -2.5,-2.5c0,-1.38071 1.11929,-2.5 2.5,-2.5c1.38071,0 2.5,1.11929 2.5,2.5c0,1.38071 -1.11929,2.5 -2.5,2.5z" data-paper-data="{&quot;index&quot;:null}" fill="#000000" stroke="none" stroke-width="0.5"/><path d="M227.33463,210.33471c-1.38071,0 -2.5,-1.11929 -2.5,-2.5c0,-1.38071 1.11929,-2.5 2.5,-2.5c1.38071,0 2.5,1.11929 2.5,2.5c0,1.38071 -1.11929,2.5 -2.5,2.5z" data-paper-data="{&quot;index&quot;:null}" fill="#000000" stroke="none" stroke-width="0.5"/><path d="M221.90599,214.42416c0,-2.5 2.5,-2.5 2.5,-2.5l3.11058,0.61855c3.27927,2.87767 6.58336,4.41951 10.25298,6.69124c0.79792,0.49396 1.42671,1.33667 2.33492,1.573c2.37594,0.61827 4.90949,-0.09688 7.36455,-0.09688c1.87865,0 3.84849,0.77833 5.63273,0.1903c1.79646,-0.59206 2.22035,-3.06315 3.30158,-4.61516c0,0 1.43366,-2.04807 3.48174,-0.61442c2.04808,1.43366 0.61442,3.48174 0.61442,3.48174c-0.99733,1.41862 -3.48483,5.5513 -5.48433,6.36724c-0.61263,0.25 -6.81555,0.1903 -7.54614,0.1903c-0.82818,0 -8.27367,0.02757 -8.74296,-0.09688c-1.31928,-0.34985 -2.34379,-1.39944 -3.52236,-2.0878c-3.973,-2.32049 -7.47849,-4.16443 -10.97965,-7.2198l0.18195,0.61856c0,0 -2.5,0 -2.5,-2.5z" data-paper-data="{&quot;index&quot;:null}" fill="#000000" stroke="none" stroke-width="0.5"/></g></g></svg>