<svg version="1.1" xmlns="http://www.w3.org/2000/svg" xmlns:xlink="http://www.w3.org/1999/xlink" width="33.70701" height="25.73475" viewBox="0,0,33.70701,25.73475"><g transform="translate(-223.1465,-167.13263)"><g data-paper-data="{&quot;isPaintingLayer&quot;:true}" fill-rule="nonzero" stroke-linecap="butt" stroke-linejoin="miter" stroke-miterlimit="10" stroke-dasharray="" stroke-dashoffset="0" style="mix-blend-mode: normal"><path d="M251.54013,183.2596c-0.75863,0 -1.37362,-0.61499 -1.37362,-1.37362c0,-0.75863 0.61499,-1.37362 1.37362,-1.37362c0.75863,0 1.37362,0.61499 1.37362,1.37362c0,0.75863 -0.61499,1.37362 -1.37362,1.37362z" data-paper-data="{&quot;index&quot;:null}" fill="#000000" stroke="none" stroke-width="0.5"/><path d="M231.02369,180.8459c-0.75863,0 -1.37362,-0.61499 -1.37362,-1.37362c0,-0.75863 0.61499,-1.37362 1.37362,-1.37362c0.75863,0 1.37362,0.61499 1.37362,1.37362c0,0.75863 -0.61499,1.37362 -1.37362,1.37362z" data-paper-data="{&quot;index&quot;:null}" fill="#000000" stroke="none" stroke-width="0.5"/><path d="M228.04093,183.09284c0,-1.37362 1.37362,-1.37362 1.37362,-1.37362l1.7091,0.33986c1.80179,1.58113 3.61721,2.42829 5.63348,3.67649c0.43842,0.27141 0.7839,0.73443 1.28292,0.86428c1.30546,0.33971 2.69751,-0.05323 4.04644,-0.05323c1.03222,0 2.11455,0.42765 3.09489,0.10456c0.98706,-0.32531 1.21997,-1.68304 1.81405,-2.53579c0,0 0.78772,-1.12531 1.91304,-0.33759c1.12531,0.78772 0.33759,1.91304 0.33759,1.91304c-0.54798,0.77946 -1.91473,3.05015 -3.01335,3.49847c-0.33661,0.13736 -3.74479,0.10456 -4.14621,0.10456c-0.45504,0 -4.54595,0.01515 -4.8038,-0.05323c-0.72488,-0.19222 -1.28779,-0.76892 -1.93535,-1.14714c-2.18296,-1.27499 -4.10904,-2.28814 -6.03275,-3.96691l0.09997,0.33987c0,0 -1.37362,0 -1.37362,-1.37362z" data-paper-data="{&quot;index&quot;:null}" fill="#000000" stroke="none" stroke-width="0.5"/><path d="M224.1465,191.86737v-23.73475h31.70701v23.73475z" data-paper-data="{&quot;index&quot;:null}" fill="#bdff66" stroke="#000000" stroke-width="2"/><path d="M224.79305,182.15587c0,-0.75863 0.61499,-1.37362 1.37362,-1.37362c0.75863,0 1.37362,0.61499 1.37362,1.37362c0,0.75863 -0.61499,1.37362 -1.37362,1.37362c-0.75863,0 -1.37362,-0.61499 -1.37362,-1.37362z" fill="#000000" stroke="none" stroke-width="0.5"/><path d="M245.30953,179.74216c0,-0.75863 0.61499,-1.37362 1.37362,-1.37362c0.75863,0 1.37362,0.61499 1.37362,1.37362c0,0.75863 -0.61499,1.37362 -1.37362,1.37362c-0.75863,0 -1.37362,-0.61499 -1.37362,-1.37362z" fill="#000000" stroke="none" stroke-width="0.5"/><path d="M249.66591,183.36272c0,1.37362 -1.37362,1.37362 -1.37362,1.37362l0.09997,-0.33987c-1.92371,1.67877 -3.84979,2.69192 -6.03275,3.9669c-0.64756,0.37822 -1.21048,0.95492 -1.93535,1.14714c-0.25785,0.06838 -4.34876,0.05323 -4.8038,0.05323c-0.40143,0 -3.8096,0.0328 -4.14622,-0.10456c-1.09863,-0.44832 -2.46537,-2.71901 -3.01335,-3.49847c0,0 -0.78772,-1.12531 0.33759,-1.91304c1.12531,-0.78772 1.91304,0.33759 1.91304,0.33759c0.59408,0.85275 0.82699,2.21048 1.81405,2.53579c0.98035,0.32309 2.06267,-0.10456 3.09489,-0.10456c1.34893,0 2.74098,0.39293 4.04644,0.05323c0.49901,-0.12985 0.8445,-0.59287 1.28292,-0.86428c2.01627,-1.2482 3.83169,-2.09536 5.63348,-3.67649l1.7091,-0.33987c0,0 1.37362,0 1.37362,1.37362z" fill="#000000" stroke="none" stroke-width="0.5"/></g></g></svg>