<svg version="1.1" xmlns="http://www.w3.org/2000/svg" xmlns:xlink="http://www.w3.org/1999/xlink" width="483" height="362" viewBox="0,0,483,362"><g transform="translate(2,1.5)"><g data-paper-data="{&quot;isPaintingLayer&quot;:true}" fill-rule="nonzero" stroke-linecap="butt" stroke-linejoin="miter" stroke-miterlimit="10" stroke-dasharray="" stroke-dashoffset="0" style="mix-blend-mode: normal"><path d="M-1,359.5v-360h481v360z" fill="#66fffc" stroke="#000000" stroke-width="2"/><text transform="translate(64.22207,202.51875) scale(1.95179,1.95179)" font-size="40" xml:space="preserve" fill="#000000" fill-rule="nonzero" stroke="none" stroke-width="1" stroke-linecap="butt" stroke-linejoin="miter" stroke-miterlimit="10" stroke-dasharray="" stroke-dashoffset="0" font-family="Sans Serif" font-weight="normal" text-anchor="start" style="mix-blend-mode: normal"><tspan x="0" dy="0">You Died!</tspan></text><path d="M198.684,226.024v13.608c0,0.27 -0.108,0.54 -0.324,0.648c-1.728,1.512 -3.888,2.268 -6.102,2.268c-2.214,0 -4.374,-0.81 -6.102,-2.268c-1.404,-1.188 -3.132,-1.89 -4.968,-1.89c-1.674,0 -3.294,0.54 -4.644,1.62v9.018c0,0.54 -0.432,0.972 -0.972,0.972c-0.54,0 -0.972,-0.432 -0.972,-0.972v-23.004c0,-0.432 0.27,-0.702 0.54,-0.864c1.728,-1.404 3.78,-2.16 5.94,-2.16c2.214,0 4.428,0.81 6.156,2.268c1.404,1.188 3.132,1.836 4.968,1.836c1.836,0 3.564,-0.648 4.968,-1.836c0.324,-0.216 0.702,-0.27 1.026,-0.108c0.324,0.162 0.486,0.486 0.486,0.864z" fill="#549a10" stroke="none" stroke-width="1"/><text transform="translate(124.21004,245.76875) scale(0.5,0.5)" font-size="40" xml:space="preserve" fill="#549a10" fill-rule="nonzero" stroke="none" stroke-width="1" stroke-linecap="butt" stroke-linejoin="miter" stroke-miterlimit="10" stroke-dasharray="" stroke-dashoffset="0" font-family="Sans Serif" font-weight="normal" text-anchor="start" style="mix-blend-mode: normal"><tspan x="0" dy="0">Click ___ To Play Again!</tspan></text></g></g></svg>