<svg version="1.1" xmlns="http://www.w3.org/2000/svg" xmlns:xlink="http://www.w3.org/1999/xlink" width="34.3251" height="26.19743" viewBox="0,0,34.3251,26.19743"><g transform="translate(-222.83745,-166.90128)"><g data-paper-data="{&quot;isPaintingLayer&quot;:true}" fill-rule="nonzero" stroke-linecap="butt" stroke-linejoin="miter" stroke-miterlimit="10" stroke-dasharray="" stroke-dashoffset="0" style="mix-blend-mode: normal"><path d="M251.7651,183.32315c-0.77342,0 -1.4004,-0.62698 -1.4004,-1.4004c0,-0.77342 0.62698,-1.4004 1.4004,-1.4004c0.77342,0 1.4004,0.62698 1.4004,1.4004c0,0.77342 -0.62698,1.4004 -1.4004,1.4004z" data-paper-data="{&quot;index&quot;:null}" fill="#000000" stroke="none" stroke-width="0.5"/><path d="M230.84871,180.86239c-0.77342,0 -1.4004,-0.62698 -1.4004,-1.4004c0,-0.77342 0.62698,-1.4004 1.4004,-1.4004c0.77342,0 1.4004,0.62698 1.4004,1.4004c0,0.77342 -0.62698,1.4004 -1.4004,1.4004z" data-paper-data="{&quot;index&quot;:null}" fill="#000000" stroke="none" stroke-width="0.5"/><path d="M227.80781,183.15313c0,-1.4004 1.4004,-1.4004 1.4004,-1.4004l1.74242,0.34649c1.83691,1.61195 3.68773,2.47563 5.7433,3.74816c0.44696,0.2767 0.79918,0.74875 1.30793,0.88113c1.3309,0.34633 2.7501,-0.05427 4.12532,-0.05427c1.05234,0 2.15577,0.43599 3.15522,0.1066c1.0063,-0.33165 1.24375,-1.71585 1.84941,-2.58522c0,0 0.80308,-1.14724 1.95033,-0.34417c1.14725,0.80308 0.34417,1.95033 0.34417,1.95033c-0.55866,0.79465 -1.95206,3.10961 -3.0721,3.56667c-0.34317,0.14004 -3.81779,0.1066 -4.22704,0.1066c-0.46391,0 -4.63457,0.01544 -4.89745,-0.05427c-0.73901,-0.19597 -1.3129,-0.78391 -1.97308,-1.1695c-2.22551,-1.29984 -4.18914,-2.33274 -6.15035,-4.04424l0.10192,0.34649c0,0 -1.4004,0 -1.4004,-1.4004z" data-paper-data="{&quot;index&quot;:null}" fill="#000000" stroke="none" stroke-width="0.5"/><path d="M223.83745,192.09872v-24.19743h32.3251v24.19743z" data-paper-data="{&quot;index&quot;:null}" fill="#9966ff" stroke="#000000" stroke-width="2"/><path d="M224.49661,182.19789c0,-0.77342 0.62698,-1.4004 1.4004,-1.4004c0.77342,0 1.4004,0.62698 1.4004,1.4004c0,0.77342 -0.62698,1.4004 -1.4004,1.4004c-0.77342,0 -1.4004,-0.62698 -1.4004,-1.4004z" fill="#000000" stroke="none" stroke-width="0.5"/><path d="M245.41303,179.73714c0,-0.77342 0.62698,-1.4004 1.4004,-1.4004c0.77342,0 1.4004,0.62698 1.4004,1.4004c0,0.77342 -0.62698,1.4004 -1.4004,1.4004c-0.77342,0 -1.4004,-0.62698 -1.4004,-1.4004z" fill="#000000" stroke="none" stroke-width="0.5"/><path d="M249.85433,183.42827c0,1.4004 -1.4004,1.4004 -1.4004,1.4004l0.10192,-0.34649c-1.96121,1.71149 -3.92484,2.74439 -6.15036,4.04423c-0.66019,0.38559 -1.23408,0.97353 -1.97308,1.1695c-0.26288,0.06971 -4.43354,0.05427 -4.89745,0.05427c-0.40925,0 -3.88387,0.03344 -4.22704,-0.1066c-1.12004,-0.45706 -2.51343,-2.77201 -3.0721,-3.56667c0,0 -0.80308,-1.14725 0.34417,-1.95033c1.14725,-0.80308 1.95033,0.34417 1.95033,0.34417c0.60566,0.86937 0.84311,2.25358 1.84942,2.58522c0.99946,0.32939 2.10288,-0.1066 3.15522,-0.1066c1.37522,0 2.79441,0.40059 4.12532,0.05427c0.50874,-0.13238 0.86096,-0.60443 1.30793,-0.88113c2.05557,-1.27253 3.90639,-2.13621 5.7433,-3.74816l1.74242,-0.34649c0,0 1.4004,0 1.4004,1.4004z" fill="#000000" stroke="none" stroke-width="0.5"/></g></g></svg>