<svg version="1.1" xmlns="http://www.w3.org/2000/svg" xmlns:xlink="http://www.w3.org/1999/xlink" width="55" height="54" viewBox="0,0,55,54"><defs><linearGradient x1="587.80156" y1="77.1683" x2="622.76142" y2="76.99661" gradientUnits="userSpaceOnUse" id="color-1"><stop offset="0" stop-color="#ee2a7b"/><stop offset="1" stop-color="#811150"/></linearGradient></defs><g transform="translate(-211.53705,-153.77037)"><g data-paper-data="{&quot;isPaintingLayer&quot;:true}" fill-rule="nonzero" stroke-linecap="butt" stroke-linejoin="miter" stroke-miterlimit="10" stroke-dasharray="" stroke-dashoffset="0" style="mix-blend-mode: normal"><path d="M212.53705,206.77037v-52h53v52z" fill="#9966ff" stroke="#000000" stroke-width="2"/><path d="M243.85188,171.69174c0,0 0.09465,17.74429 0.13422,25.80318c0.01037,2.11101 -1.69278,3.83057 -3.8034,3.84094c-2.11101,0.01037 -3.83026,-1.69239 -3.84063,-3.8034c-0.03318,-6.75648 -0.13451,-25.78243 -0.13451,-25.78243c0,0 -1.28638,1.28368 -7.14975,7.20531c-1.48548,1.50007 -3.90524,1.51195 -5.40499,0.02654c-1.49976,-1.48618 -1.51203,-3.90562 -0.02654,-5.40538c4.75397,-4.80159 13.64538,-13.77975 13.64538,-13.77975c1.48548,-1.49976 3.90555,-1.51164 5.40499,-0.02654c0,0 7.74822,7.67218 13.66984,13.53586c1.50084,1.48618 1.51273,3.90593 0.02654,5.40538c-1.48517,1.50014 -3.90562,1.51203 -5.4043,0.02654c-4.80307,-4.75474 -7.11687,-7.04623 -7.11687,-7.04623z" data-paper-data="{&quot;index&quot;:null}" fill="url(#color-1)" stroke="#ffffff" stroke-width="1.15823"/></g></g></svg>