<svg version="1.1" xmlns="http://www.w3.org/2000/svg" xmlns:xlink="http://www.w3.org/1999/xlink" width="495" height="369" viewBox="0,0,495,369"><g transform="translate(7.5,4.5)"><g data-paper-data="{&quot;isPaintingLayer&quot;:true}" fill-rule="nonzero" stroke-linecap="butt" stroke-linejoin="miter" stroke-miterlimit="10" stroke-dasharray="" stroke-dashoffset="0" style="mix-blend-mode: normal"><path d="M-6.5,363.5v-367h493v367z" fill="#66e9ff" stroke="#000000" stroke-width="2"/><text transform="translate(79.5,85.5) scale(1.45341,1.45341)" font-size="40" xml:space="preserve" fill="#7866ff" fill-rule="nonzero" stroke="none" stroke-width="1" stroke-linecap="butt" stroke-linejoin="miter" stroke-miterlimit="10" stroke-dasharray="" stroke-dashoffset="0" font-family="Sans Serif" font-weight="normal" text-anchor="start" style="mix-blend-mode: normal"><tspan x="0" dy="0">box revived</tspan></text><path d="M166.72549,137.5v-29h30.54902v29z" fill="#ff6666" stroke="#000000" stroke-width="2"/><path d="M313.72549,127.5v-29h30.54902v29z" fill="#ff6666" stroke="#000000" stroke-width="2"/><path d="M268.72549,198.5v-29h30.54902v29z" fill="#ff6666" stroke="#000000" stroke-width="2"/><g><path d="M174.10045,221.89387c-0.92147,0.65491 -2.19938,0.43883 -2.8543,-0.48264c-0.65491,-0.92147 -0.43883,-2.19938 0.48264,-2.8543c0.92147,-0.65491 2.19938,-0.43883 2.8543,0.48264c0.65491,0.92147 0.43883,2.19938 -0.48264,2.8543z" data-paper-data="{&quot;index&quot;:null}" fill="#000000" stroke="none" stroke-width="0.5"/><path d="M147.09647,236.67363c-0.92147,0.65491 -2.19938,0.43883 -2.8543,-0.48264c-0.65491,-0.92147 -0.43883,-2.19938 0.48264,-2.8543c0.92147,-0.65491 2.19938,-0.43883 2.8543,0.48264c0.65491,0.92147 0.43883,2.19938 -0.48264,2.8543z" data-paper-data="{&quot;index&quot;:null}" fill="#000000" stroke="none" stroke-width="0.5"/><path d="M145.41322,241.97785c-1.18583,-1.66847 0.48264,-2.8543 0.48264,-2.8543l2.36936,-1.06263c3.55351,0.36506 6.48996,-0.17317 10.01657,-0.39766c0.76682,-0.04882 1.58619,0.21535 2.30441,-0.05772c1.87894,-0.71436 3.23057,-2.39338 4.86905,-3.55789c1.25378,-0.8911 2.93761,-1.30601 3.84948,-2.54477c0.9181,-1.24725 0.02889,-3.09749 0.01431,-4.64614c0,0 -0.01466,-2.04688 2.03223,-2.06156c2.04689,-0.01466 2.06156,2.03223 2.06156,2.03223c0.00729,1.41983 0.30743,5.35783 -0.63999,6.8508c-0.29028,0.45743 -4.45834,3.35983 -4.94592,3.70637c-0.55271,0.39283 -5.50866,3.94286 -5.88089,4.0824c-1.04641,0.39229 -2.22801,0.17776 -3.34108,0.27739c-3.75221,0.33585 -6.96636,0.768 -10.75224,0.38959l0.41483,0.32651c0,0 -1.66847,1.18583 -2.8543,-0.48264z" data-paper-data="{&quot;index&quot;:null}" fill="#000000" stroke="none" stroke-width="0.5"/><path d="M134.46145,265.92901l-20.48988,-28.82938l60.83487,-43.23713l20.48988,28.82938z" fill="#9966ff" stroke="#000000" stroke-width="2"/><path d="M140.65931,243.64361c-0.65491,-0.92147 -0.43883,-2.19938 0.48264,-2.8543c0.92147,-0.65491 2.19938,-0.43883 2.8543,0.48264c0.65491,0.92147 0.43883,2.19938 -0.48264,2.8543c-0.92147,0.65491 -2.19938,0.43883 -2.8543,-0.48264z" fill="#000000" stroke="none" stroke-width="0.5"/><path d="M163.4959,223.00022c-0.65491,-0.92147 -0.43883,-2.19938 0.48264,-2.8543c0.92147,-0.65491 2.19938,-0.43883 2.8543,0.48264c0.65491,0.92147 0.43883,2.19938 -0.48264,2.8543c-0.92147,0.65491 -2.19938,0.43883 -2.8543,-0.48264z" fill="#000000" stroke="none" stroke-width="0.5"/><path d="M171.91294,223.63712c1.18583,1.66847 -0.48264,2.8543 -0.48264,2.8543l-0.17198,-0.49912c-0.88737,3.69982 -2.35225,6.5932 -3.90311,10.02638c-0.46005,1.01843 -0.64594,2.20488 -1.36046,3.06413c-0.25416,0.30566 -5.23626,3.81888 -5.78898,4.21171c-0.48759,0.34655 -4.59901,3.32862 -5.12646,3.45237c-1.72147,0.40389 -5.34184,-1.17432 -6.68035,-1.64802c0,0 -1.92828,-0.68683 -1.24144,-2.61511c0.68683,-1.92828 2.61511,-1.24144 2.61511,-1.24144c1.45777,0.52293 2.91279,1.97103 4.39255,1.51404c1.4697,-0.45388 2.41516,-1.90768 3.66894,-2.79878c1.63847,-1.16451 3.66854,-1.88897 4.96096,-3.42858c0.49403,-0.58851 0.51395,-1.44918 0.81217,-2.15732c1.3715,-3.25674 2.84526,-5.85297 3.66884,-9.32895l1.78256,-1.88826c0,0 1.66847,-1.18583 2.8543,0.48264z" fill="#000000" stroke="none" stroke-width="0.5"/></g></g></g></svg>